<?xml version="1.0" encoding="utf-8"?>
<!-- Generator: Adobe Illustrator 19.2.1, SVG Export Plug-In . SVG Version: 6.00 Build 0)  -->
<!DOCTYPE svg PUBLIC "-//W3C//DTD SVG 1.1//EN" "http://www.w3.org/Graphics/SVG/1.1/DTD/svg11.dtd">
<svg version="1.1" xmlns="http://www.w3.org/2000/svg" xmlns:xlink="http://www.w3.org/1999/xlink" x="0px" y="0px"
	 viewBox="0 0 24 24" enable-background="new 0 0 24 24" xml:space="preserve">
<g id="Layer_1">
	<path d="M24,12c0-6.6-5.4-12-12-12C5.4,0,0,5.4,0,12c0,3,1.1,5.7,2.8,7.7l-2.5,2.5l1.4,1.4l2.5-2.5C6.3,22.9,9,24,12,24
		s5.7-1.1,7.7-2.8l2.5,2.5l1.4-1.4l-2.5-2.5C22.9,17.7,24,15,24,12z M2,12C2,6.5,6.5,2,12,2c5.5,0,10,4.5,10,10
		c0,2.4-0.8,4.6-2.3,6.3L12,10.6l-7.7,7.7C2.8,16.6,2,14.4,2,12z M12,22c-2.4,0-4.6-0.8-6.3-2.3l6.3-6.3l6.3,6.3
		C16.6,21.2,14.4,22,12,22z"/>
</g>
<g id="Layer_2" display="none">
	<g display="inline">
		<path fill="#ED1C24" d="M12,2c5.5,0,10,4.5,10,10s-4.5,10-10,10S2,17.5,2,12S6.5,2,12,2 M12,0C5.4,0,0,5.4,0,12s5.4,12,12,12
			s12-5.4,12-12S18.6,0,12,0L12,0z"/>
	</g>
	<polyline display="inline" fill="none" stroke="#ED1C24" stroke-width="2" stroke-miterlimit="10" points="1,23 12,12 23,23 	"/>
</g>
</svg>
