<?xml version="1.0" encoding="UTF-8" standalone="no"?>
<!-- Generator: Adobe Illustrator 16.0.2, SVG Export Plug-In . SVG Version: 6.00 Build 0)  -->

<svg
   xmlns:dc="http://purl.org/dc/elements/1.1/"
   xmlns:cc="http://creativecommons.org/ns#"
   xmlns:rdf="http://www.w3.org/1999/02/22-rdf-syntax-ns#"
   xmlns:svg="http://www.w3.org/2000/svg"
   xmlns="http://www.w3.org/2000/svg"
   xmlns:sodipodi="http://sodipodi.sourceforge.net/DTD/sodipodi-0.dtd"
   xmlns:inkscape="http://www.inkscape.org/namespaces/inkscape"
   version="1.1"
   id="Layer_1"
   x="0px"
   y="0px"
   width="12.68"
   height="17.424999"
   viewBox="0 0 12.68 17.424999"
   enable-background="new 0 0 113.39 113.39"
   xml:space="preserve"
   inkscape:version="0.48.2 r9819"
   sodipodi:docname="latauspiste.svg"><metadata
   id="metadata21"><rdf:RDF><cc:Work
       rdf:about=""><dc:format>image/svg+xml</dc:format><dc:type
         rdf:resource="http://purl.org/dc/dcmitype/StillImage" /></cc:Work></rdf:RDF></metadata><defs
   id="defs19" /><sodipodi:namedview
   pagecolor="#ffffff"
   bordercolor="#666666"
   borderopacity="1"
   objecttolerance="10"
   gridtolerance="10"
   guidetolerance="10"
   inkscape:pageopacity="0"
   inkscape:pageshadow="2"
   inkscape:window-width="640"
   inkscape:window-height="480"
   id="namedview17"
   showgrid="false"
   fit-margin-top="0"
   fit-margin-left="0"
   fit-margin-right="0"
   fit-margin-bottom="0"
   inkscape:zoom="2.0813123"
   inkscape:cx="6.388"
   inkscape:cy="9.165"
   inkscape:window-x="0"
   inkscape:window-y="0"
   inkscape:window-maximized="0"
   inkscape:current-layer="Layer_1" />
<g
   id="g3"
   transform="translate(-50.307,-48.435)">
	<g
   id="g5">
		<path
   d="m 56.946,54.184 0.193,0.041 -0.68,2.156 h -6.152 v -0.217 h 0.299 c 0.336,0 0.576,-0.109 0.721,-0.328 0.082,-0.125 0.123,-0.414 0.123,-0.867 v -5.127 c 0,-0.496 -0.055,-0.807 -0.164,-0.932 -0.152,-0.172 -0.379,-0.258 -0.68,-0.258 h -0.299 v -0.217 h 3.598 v 0.217 c -0.422,-0.004 -0.718,0.035 -0.888,0.117 -0.17,0.082 -0.286,0.186 -0.349,0.311 -0.063,0.125 -0.094,0.424 -0.094,0.896 v 4.992 c 0,0.324 0.031,0.547 0.094,0.668 0.047,0.082 0.119,0.143 0.217,0.182 0.098,0.039 0.402,0.059 0.914,0.059 h 0.58 c 0.609,0 1.037,-0.045 1.283,-0.135 0.246,-0.09 0.471,-0.249 0.674,-0.478 0.203,-0.229 0.407,-0.588 0.61,-1.08 z"
   id="path7"
   inkscape:connector-curvature="0" />
		<path
   d="m 57.385,51.547 1.652,-0.668 h 0.223 v 1.254 c 0.277,-0.473 0.557,-0.804 0.836,-0.993 0.279,-0.189 0.572,-0.284 0.881,-0.284 0.539,0 0.988,0.211 1.348,0.633 0.441,0.516 0.662,1.188 0.662,2.016 0,0.926 -0.266,1.691 -0.797,2.297 -0.438,0.496 -0.988,0.744 -1.652,0.744 -0.289,0 -0.539,-0.041 -0.75,-0.123 -0.156,-0.059 -0.332,-0.176 -0.527,-0.352 v 1.635 c 0,0.367 0.023,0.601 0.068,0.7 0.045,0.099 0.123,0.179 0.234,0.237 0.111,0.058 0.313,0.088 0.605,0.088 v 0.217 H 57.356 V 58.73 h 0.146 c 0.215,0.004 0.398,-0.037 0.55,-0.123 0.074,-0.043 0.133,-0.112 0.174,-0.208 0.041,-0.096 0.061,-0.339 0.061,-0.729 v -5.074 c 0,-0.348 -0.016,-0.568 -0.047,-0.662 -0.031,-0.094 -0.08,-0.164 -0.148,-0.211 -0.068,-0.047 -0.162,-0.07 -0.279,-0.07 -0.094,0 -0.213,0.027 -0.357,0.082 l -0.071,-0.188 z m 1.875,0.932 v 2.004 c 0,0.434 0.018,0.719 0.053,0.855 0.055,0.227 0.189,0.426 0.402,0.598 0.213,0.172 0.48,0.258 0.805,0.258 0.391,0 0.707,-0.152 0.949,-0.457 0.316,-0.398 0.475,-0.959 0.475,-1.682 0,-0.82 -0.18,-1.451 -0.539,-1.893 -0.25,-0.305 -0.547,-0.457 -0.891,-0.457 -0.188,0 -0.373,0.047 -0.557,0.141 -0.141,0.07 -0.373,0.281 -0.697,0.633 z"
   id="path9"
   inkscape:connector-curvature="0" />
	</g>
	<g
   id="g11">
		<rect
   x="52.619999"
   y="62.601002"
   width="8.2250004"
   height="2.76"
   id="rect13"
   style="fill:#ffffff" />
		<path
   d="M 61.345,65.86 H 52.12 V 62.1 h 9.225 v 3.76 z m -8.225,-1 h 7.225 V 63.1 H 53.12 v 1.76 z"
   id="path15"
   inkscape:connector-curvature="0" />
	</g>
</g>
</svg>