<?xml version="1.0" encoding="UTF-8" standalone="no"?>
<!-- Generator: Adobe Illustrator 16.0.2, SVG Export Plug-In . SVG Version: 6.00 Build 0)  -->

<svg
   xmlns:dc="http://purl.org/dc/elements/1.1/"
   xmlns:cc="http://creativecommons.org/ns#"
   xmlns:rdf="http://www.w3.org/1999/02/22-rdf-syntax-ns#"
   xmlns:svg="http://www.w3.org/2000/svg"
   xmlns="http://www.w3.org/2000/svg"
   xmlns:sodipodi="http://sodipodi.sourceforge.net/DTD/sodipodi-0.dtd"
   xmlns:inkscape="http://www.inkscape.org/namespaces/inkscape"
   version="1.1"
   id="Layer_1"
   x="0px"
   y="0px"
   width="13.304749"
   height="6.9839997"
   viewBox="0 0 13.30475 6.9839995"
   enable-background="new 0 0 113.39 113.39"
   xml:space="preserve"
   inkscape:version="0.48.2 r9819"
   sodipodi:docname="opastin_sm.svg"><metadata
   id="metadata17"><rdf:RDF><cc:Work
       rdf:about=""><dc:format>image/svg+xml</dc:format><dc:type
         rdf:resource="http://purl.org/dc/dcmitype/StillImage" /></cc:Work></rdf:RDF></metadata><defs
   id="defs15" /><sodipodi:namedview
   pagecolor="#ffffff"
   bordercolor="#666666"
   borderopacity="1"
   objecttolerance="10"
   gridtolerance="10"
   guidetolerance="10"
   inkscape:pageopacity="0"
   inkscape:pageshadow="2"
   inkscape:window-width="728"
   inkscape:window-height="480"
   id="namedview13"
   showgrid="false"
   fit-margin-top="0"
   fit-margin-left="0"
   fit-margin-right="0"
   fit-margin-bottom="0"
   inkscape:zoom="2.0813123"
   inkscape:cx="6.64975"
   inkscape:cy="3.6159992"
   inkscape:window-x="0"
   inkscape:window-y="0"
   inkscape:window-maximized="0"
   inkscape:current-layer="Layer_1" />
<g
   id="g2986"
   transform="matrix(0,1,-1,0,13.30475,-3.0047742e-7)"><g
     transform="translate(-53.203,-50.164)"
     id="g3">
	<g
   id="g5">
		<path
   inkscape:connector-curvature="0"
   id="path7"
   d="m 53.203,56.107 1.688,-0.164 c 0.102,0.566 0.308,0.982 0.618,1.248 0.31,0.266 0.729,0.398 1.257,0.398 0.559,0 0.979,-0.118 1.262,-0.354 0.283,-0.236 0.426,-0.513 0.426,-0.829 0,-0.203 -0.061,-0.376 -0.18,-0.519 -0.119,-0.143 -0.326,-0.267 -0.624,-0.372 -0.203,-0.07 -0.666,-0.195 -1.389,-0.375 -0.93,-0.23 -1.582,-0.514 -1.957,-0.85 -0.527,-0.473 -0.791,-1.049 -0.791,-1.729 0,-0.438 0.124,-0.847 0.372,-1.228 0.248,-0.381 0.605,-0.671 1.072,-0.87 0.467,-0.199 1.03,-0.299 1.69,-0.299 1.079,0 1.889,0.236 2.434,0.709 0.545,0.473 0.832,1.104 0.859,1.893 l -1.734,0.076 c -0.074,-0.441 -0.234,-0.759 -0.479,-0.952 -0.244,-0.193 -0.61,-0.29 -1.098,-0.29 -0.504,0 -0.898,0.104 -1.184,0.311 -0.184,0.133 -0.275,0.311 -0.275,0.533 0,0.203 0.086,0.377 0.258,0.521 0.219,0.184 0.75,0.375 1.594,0.574 0.844,0.199 1.467,0.405 1.872,0.618 0.405,0.213 0.721,0.504 0.949,0.873 0.228,0.369 0.344,0.825 0.344,1.368 0,0.492 -0.137,0.953 -0.41,1.383 -0.273,0.43 -0.66,0.749 -1.16,0.958 -0.5,0.209 -1.124,0.313 -1.87,0.313 -1.086,0 -1.92,-0.251 -2.502,-0.753 -0.582,-0.502 -0.929,-1.231 -1.042,-2.192 z" />
	</g>
	<line
   style="fill:none;stroke:#000000;stroke-width:0.5;stroke-miterlimit:10"
   id="line9"
   y2="63.223999"
   x2="56.771"
   y1="58.901001"
   x1="56.771"
   stroke-miterlimit="10" />
	<line
   style="fill:none;stroke:#000000;stroke-width:0.5;stroke-miterlimit:10"
   id="line11"
   y2="63.223999"
   x2="59.708"
   y1="63.223999"
   x1="53.834"
   stroke-miterlimit="10" />
</g></g>
</svg>