<?xml version="1.0" encoding="UTF-8" standalone="no"?>
<!-- Generator: Adobe Illustrator 16.0.2, SVG Export Plug-In . SVG Version: 6.00 Build 0)  -->

<svg
   xmlns:dc="http://purl.org/dc/elements/1.1/"
   xmlns:cc="http://creativecommons.org/ns#"
   xmlns:rdf="http://www.w3.org/1999/02/22-rdf-syntax-ns#"
   xmlns:svg="http://www.w3.org/2000/svg"
   xmlns="http://www.w3.org/2000/svg"
   xmlns:sodipodi="http://sodipodi.sourceforge.net/DTD/sodipodi-0.dtd"
   xmlns:inkscape="http://www.inkscape.org/namespaces/inkscape"
   version="1.1"
   id="Layer_1"
   x="0px"
   y="0px"
   width="17.679251"
   height="9.0047817"
   viewBox="51.982 47.977 17.67925 9.0047817"
   enable-background="new 51.982 47.977 9.005 17.684"
   xml:space="preserve"
   inkscape:version="0.48.2 r9819"
   sodipodi:docname="opastin_rp.svg"><metadata
   id="metadata33"><rdf:RDF><cc:Work
       rdf:about=""><dc:format>image/svg+xml</dc:format><dc:type
         rdf:resource="http://purl.org/dc/dcmitype/StillImage" /></cc:Work></rdf:RDF></metadata><defs
   id="defs31" /><sodipodi:namedview
   pagecolor="#ffffff"
   bordercolor="#666666"
   borderopacity="1"
   objecttolerance="10"
   gridtolerance="10"
   guidetolerance="10"
   inkscape:pageopacity="0"
   inkscape:pageshadow="2"
   inkscape:window-width="728"
   inkscape:window-height="480"
   id="namedview29"
   showgrid="false"
   fit-margin-top="0"
   fit-margin-left="0"
   fit-margin-right="0"
   fit-margin-bottom="0"
   inkscape:zoom="13.345397"
   inkscape:cx="8.83664"
   inkscape:cy="4.5028922"
   inkscape:window-x="0"
   inkscape:window-y="0"
   inkscape:window-maximized="0"
   inkscape:current-layer="Layer_1" />
<g
   id="g3010"
   transform="matrix(0,1,-1,0,117.63825,-4.0052182)"><g
     id="g3">
	<line
   id="line5"
   y2="65.412003"
   x2="55.611"
   y1="61.09"
   x1="55.611"
   stroke-miterlimit="10"
   style="fill:none;stroke:#000000;stroke-width:0.5;stroke-miterlimit:10" />
	<line
   id="line7"
   y2="65.412003"
   x2="58.549"
   y1="65.412003"
   x1="52.674"
   stroke-miterlimit="10"
   style="fill:none;stroke:#000000;stroke-width:0.5;stroke-miterlimit:10" />
	<g
   id="g9">
		<path
   id="path11"
   d="m 58.742,54.7 v 0.688 l -10e-4,4.831 v 0.361 h -5.898 c -0.095,0 -0.192,-0.044 -0.266,-0.121 -0.063,-0.065 -0.098,-0.146 -0.094,-0.217 0.076,-1.637 4.395,-4.929 6.259,-5.542 m 0.5,-0.6 c -1.625,0 -7.157,3.957 -7.259,6.118 -0.021,0.443 0.384,0.861 0.859,0.861 h 6.398 c 0,0 0,-0.099 0,-0.861 h 10e-4 V 55.387 C 59.242,54.912 59.242,54.1 59.242,54.1 l 0,0 z"
   inkscape:connector-curvature="0" />
	</g>
	<g
   id="g13">
		<path
   id="path15"
   d="M 60.487,48.477 V 60.576 H 59.32 V 48.477 h 1.167 m 0.5,-0.5 H 58.82 v 13.099 h 2.167 V 47.977 l 0,0 z"
   inkscape:connector-curvature="0" />
	</g>
	<g
   id="g17">
		<rect
   id="rect19"
   height="3.5209999"
   width="1.6670001"
   y="48.227001"
   x="59.07" />
		<path
   id="path21"
   d="m 60.487,48.477 v 3.021 H 59.32 v -3.021 h 1.167 m 0.5,-0.5 H 58.82 v 4.021 h 2.167 v -4.021 l 0,0 z"
   inkscape:connector-curvature="0" />
	</g>
	<g
   id="g23">
		<rect
   id="rect25"
   height="3.5220001"
   width="1.6670001"
   y="57.083"
   x="59.07" />
		<path
   id="path27"
   d="m 60.487,57.333 v 3.022 H 59.32 v -3.022 h 1.167 m 0.5,-0.5 H 58.82 v 4.022 h 2.167 v -4.022 l 0,0 z"
   inkscape:connector-curvature="0" />
	</g>
</g></g>
</svg>