<?xml version="1.0" encoding="UTF-8" standalone="no"?>
<!-- Generator: Adobe Illustrator 16.0.2, SVG Export Plug-In . SVG Version: 6.00 Build 0)  -->

<svg
   xmlns:dc="http://purl.org/dc/elements/1.1/"
   xmlns:cc="http://creativecommons.org/ns#"
   xmlns:rdf="http://www.w3.org/1999/02/22-rdf-syntax-ns#"
   xmlns:svg="http://www.w3.org/2000/svg"
   xmlns="http://www.w3.org/2000/svg"
   xmlns:sodipodi="http://sodipodi.sourceforge.net/DTD/sodipodi-0.dtd"
   xmlns:inkscape="http://www.inkscape.org/namespaces/inkscape"
   version="1.1"
   id="Layer_1"
   x="0px"
   y="0px"
   width="24.65625"
   height="6.9757681"
   viewBox="53.43 44.299 24.65625 6.9757681"
   enable-background="new 53.43 44.299 6.473 24.736"
   xml:space="preserve"
   inkscape:version="0.48.3.1 r9886"
   sodipodi:docname="opastin_pr.svg"><metadata
   id="metadata25"><rdf:RDF><cc:Work
       rdf:about=""><dc:format>image/svg+xml</dc:format><dc:type
         rdf:resource="http://purl.org/dc/dcmitype/StillImage" /><dc:title /></cc:Work></rdf:RDF></metadata><defs
   id="defs23">
	
		
	
	
	
	
	
	
		
	
</defs><sodipodi:namedview
   pagecolor="#ffffff"
   bordercolor="#666666"
   borderopacity="1"
   objecttolerance="10"
   gridtolerance="10"
   guidetolerance="10"
   inkscape:pageopacity="0"
   inkscape:pageshadow="2"
   inkscape:window-width="1920"
   inkscape:window-height="1124"
   id="namedview21"
   showgrid="false"
   fit-margin-top="0"
   fit-margin-left="0"
   fit-margin-right="0"
   fit-margin-bottom="0"
   inkscape:zoom="38.163001"
   inkscape:cx="2.3623662"
   inkscape:cy="8.2550471"
   inkscape:window-x="0"
   inkscape:window-y="25"
   inkscape:window-maximized="1"
   inkscape:current-layer="g3031"
   inkscape:snap-bbox="true" />
<g
   id="g3031"
   transform="matrix(0,1,-1,0,122.46125,-8.9074269)"><g
     id="g4860"><line
       id="line7"
       y2="68.799553"
       x2="56.683998"
       y1="62.63055"
       x1="56.683998"
       stroke-miterlimit="10"
       style="fill:none;stroke:#000000;stroke-width:0.5;stroke-miterlimit:10;stroke-dasharray:none" /><path
       transform="matrix(0,-1.0547641,1.0480027,0,53.239177,69.909888)"
       d="m 13.036187,3.2961016 c 0,1.6931927 -1.363805,3.0657966 -3.0461443,3.0657966 -1.6823389,0 -3.046144,-1.3726039 -3.046144,-3.0657966 0,-1.6931927 1.3638051,-3.06579664 3.046144,-3.06579664 1.6823393,0 3.0461443,1.37260394 3.0461443,3.06579664 z"
       sodipodi:ry="3.0657966"
       sodipodi:rx="3.046144"
       sodipodi:cy="3.2961016"
       sodipodi:cx="9.9900427"
       id="path4828"
       style="fill:none;fill-opacity:1;stroke:#000000;stroke-width:0.52033960999999995;stroke-miterlimit:10;stroke-opacity:1;stroke-dasharray:none"
       sodipodi:type="arc" /><rect
       id="rect5"
       height="11.521"
       width="5.8740001"
       stroke-miterlimit="10"
       y="44.616001"
       x="53.747002"
       style="fill:none;stroke:#000000;stroke-width:0.50000000000000000;stroke-miterlimit:10;fill-opacity:1"
       rx="2.5999999" /><line
       id="line9"
       y2="68.773003"
       x2="59.644001"
       y1="68.773003"
       x1="53.769001"
       stroke-miterlimit="10"
       style="fill:none;stroke:#000000;stroke-width:0.5;stroke-miterlimit:10" /><circle
       id="circle11"
       r="1.256"
       cy="46.879002"
       cx="56.683998"
       stroke-miterlimit="10"
       sodipodi:cx="56.683998"
       sodipodi:cy="46.879002"
       sodipodi:rx="1.256"
       sodipodi:ry="1.256"
       style="fill:none;stroke:#000000;stroke-width:0.5;stroke-miterlimit:10"
       d="m 57.939998,46.879002 c 0,0.693669 -0.56233,1.256 -1.256,1.256 -0.69367,0 -1.256,-0.562331 -1.256,-1.256 0,-0.69367 0.56233,-1.256 1.256,-1.256 0.69367,0 1.256,0.56233 1.256,1.256 z"
       transform="translate(0,-0.06975167)" /><circle
       id="circle13"
       r="1.256"
       cy="50.508999"
       cx="56.683998"
       stroke-miterlimit="10"
       sodipodi:cx="56.683998"
       sodipodi:cy="50.508999"
       sodipodi:rx="1.256"
       sodipodi:ry="1.256"
       style="fill:none;stroke:#000000;stroke-width:0.5;stroke-miterlimit:10"
       d="m 57.939998,50.508999 c 0,0.69367 -0.56233,1.256 -1.256,1.256 -0.69367,0 -1.256,-0.56233 -1.256,-1.256 0,-0.69367 0.56233,-1.256 1.256,-1.256 0.69367,0 1.256,0.56233 1.256,1.256 z"
       transform="translate(0,3.1002511)" /><circle
       transform="matrix(0.86719785,0,0,0.86719785,7.5277587,17.301881)"
       d="m 57.939998,46.879002 c 0,0.693669 -0.56233,1.256 -1.256,1.256 -0.69367,0 -1.256,-0.562331 -1.256,-1.256 0,-0.69367 0.56233,-1.256 1.256,-1.256 0.69367,0 1.256,0.56233 1.256,1.256 z"
       style="fill:none;stroke:#000000;stroke-width:0.5;stroke-miterlimit:10"
       sodipodi:ry="1.256"
       sodipodi:rx="1.256"
       sodipodi:cy="46.879002"
       sodipodi:cx="56.683998"
       stroke-miterlimit="10"
       cx="56.683998"
       cy="46.879002"
       r="1.256"
       id="circle4830" /><circle
       transform="matrix(0.86719785,0,0,0.86719785,7.5277587,17.007955)"
       d="m 57.939998,50.508999 c 0,0.69367 -0.56233,1.256 -1.256,1.256 -0.69367,0 -1.256,-0.56233 -1.256,-1.256 0,-0.69367 0.56233,-1.256 1.256,-1.256 0.69367,0 1.256,0.56233 1.256,1.256 z"
       style="fill:none;stroke:#000000;stroke-width:0.5;stroke-miterlimit:10"
       sodipodi:ry="1.256"
       sodipodi:rx="1.256"
       sodipodi:cy="50.508999"
       sodipodi:cx="56.683998"
       stroke-miterlimit="10"
       cx="56.683998"
       cy="50.508999"
       r="1.256"
       id="circle4832" /><circle
       transform="translate(0,-0.29974892)"
       d="m 57.939998,50.508999 c 0,0.69367 -0.56233,1.256 -1.256,1.256 -0.69367,0 -1.256,-0.56233 -1.256,-1.256 0,-0.69367 0.56233,-1.256 1.256,-1.256 0.69367,0 1.256,0.56233 1.256,1.256 z"
       style="fill:none;stroke:#000000;stroke-width:0.5;stroke-miterlimit:10"
       sodipodi:ry="1.256"
       sodipodi:rx="1.256"
       sodipodi:cy="50.508999"
       sodipodi:cx="56.683998"
       stroke-miterlimit="10"
       cx="56.683998"
       cy="50.508999"
       r="1.256"
       id="circle5089" /></g></g>
</svg>