<?xml version="1.0" encoding="UTF-8" standalone="no"?>
<!-- Generator: Adobe Illustrator 16.0.2, SVG Export Plug-In . SVG Version: 6.00 Build 0)  -->

<svg
   xmlns:dc="http://purl.org/dc/elements/1.1/"
   xmlns:cc="http://creativecommons.org/ns#"
   xmlns:rdf="http://www.w3.org/1999/02/22-rdf-syntax-ns#"
   xmlns:svg="http://www.w3.org/2000/svg"
   xmlns="http://www.w3.org/2000/svg"
   xmlns:sodipodi="http://sodipodi.sourceforge.net/DTD/sodipodi-0.dtd"
   xmlns:inkscape="http://www.inkscape.org/namespaces/inkscape"
   version="1.1"
   id="Layer_1"
   x="0px"
   y="0px"
   width="11.123"
   height="7.2577815"
   viewBox="53.065 51.252 11.123 7.2577813"
   enable-background="new 53.065 51.252 7.259 11.14"
   xml:space="preserve"
   inkscape:version="0.48.2 r9819"
   sodipodi:docname="opastin_ra.svg"><metadata
   id="metadata17"><rdf:RDF><cc:Work
       rdf:about=""><dc:format>image/svg+xml</dc:format><dc:type
         rdf:resource="http://purl.org/dc/dcmitype/StillImage" /></cc:Work></rdf:RDF></metadata><defs
   id="defs15" /><sodipodi:namedview
   pagecolor="#ffffff"
   bordercolor="#666666"
   borderopacity="1"
   objecttolerance="10"
   gridtolerance="10"
   guidetolerance="10"
   inkscape:pageopacity="0"
   inkscape:pageshadow="2"
   inkscape:window-width="728"
   inkscape:window-height="480"
   id="namedview13"
   showgrid="false"
   fit-margin-top="0"
   fit-margin-left="0"
   fit-margin-right="0"
   fit-margin-bottom="0"
   inkscape:zoom="21.184919"
   inkscape:cx="5.5538899"
   inkscape:cy="3.6273908"
   inkscape:window-x="0"
   inkscape:window-y="0"
   inkscape:window-maximized="0"
   inkscape:current-layer="Layer_1" />
<g
   id="g2994"
   transform="matrix(0,1,-1,0,115.44,-1.8142185)"><g
     id="g3">
	<line
   id="line5"
   y2="62.139"
   x2="56.695"
   y1="57.816002"
   x1="56.695"
   stroke-miterlimit="10"
   style="fill:none;stroke:#000000;stroke-width:0.5;stroke-miterlimit:10" />
	<line
   id="line7"
   y2="62.139"
   x2="59.632"
   y1="62.139"
   x1="53.757999"
   stroke-miterlimit="10"
   style="fill:none;stroke:#000000;stroke-width:0.5;stroke-miterlimit:10" />
	<g
   id="g9">
		<path
   id="path11"
   d="m 59.485,51.753 c 0.157,0.013 0.339,0.173 0.339,0.359 v 4.833 c 0,0.198 -0.161,0.359 -0.359,0.359 h -5.539 c -0.096,0 -0.193,-0.044 -0.267,-0.122 -0.062,-0.065 -0.097,-0.145 -0.093,-0.214 0.086,-1.837 3.613,-4.938 5.919,-5.215 m -0.02,-0.501 c -2.46,0.268 -6.297,3.53 -6.398,5.693 -0.021,0.442 0.384,0.859 0.859,0.859 h 5.539 c 0.475,0 0.859,-0.385 0.859,-0.859 v -4.833 c 0,-0.475 -0.425,-0.86 -0.859,-0.86 l 0,0 z"
   inkscape:connector-curvature="0" />
	</g>
</g></g>
</svg>