<?xml version="1.0" encoding="UTF-8" standalone="no"?>
<!-- Generator: Adobe Illustrator 16.0.2, SVG Export Plug-In . SVG Version: 6.00 Build 0)  -->

<svg
   xmlns:dc="http://purl.org/dc/elements/1.1/"
   xmlns:cc="http://creativecommons.org/ns#"
   xmlns:rdf="http://www.w3.org/1999/02/22-rdf-syntax-ns#"
   xmlns:svg="http://www.w3.org/2000/svg"
   xmlns="http://www.w3.org/2000/svg"
   xmlns:sodipodi="http://sodipodi.sourceforge.net/DTD/sodipodi-0.dtd"
   xmlns:inkscape="http://www.inkscape.org/namespaces/inkscape"
   version="1.1"
   id="Layer_1"
   x="0px"
   y="0px"
   width="12.04375"
   height="7.506"
   viewBox="52.942 50.8 12.04375 7.5059998"
   enable-background="new 52.942 50.8 7.506 12.048"
   xml:space="preserve"
   inkscape:version="0.48.2 r9819"
   sodipodi:docname="opastin_to.svg"><metadata
   id="metadata21"><rdf:RDF><cc:Work
       rdf:about=""><dc:format>image/svg+xml</dc:format><dc:type
         rdf:resource="http://purl.org/dc/dcmitype/StillImage" /></cc:Work></rdf:RDF></metadata><defs
   id="defs19" /><sodipodi:namedview
   pagecolor="#ffffff"
   bordercolor="#666666"
   borderopacity="1"
   objecttolerance="10"
   gridtolerance="10"
   guidetolerance="10"
   inkscape:pageopacity="0"
   inkscape:pageshadow="2"
   inkscape:window-width="728"
   inkscape:window-height="480"
   id="namedview17"
   showgrid="false"
   fit-margin-top="0"
   fit-margin-left="0"
   fit-margin-right="0"
   fit-margin-bottom="0"
   inkscape:zoom="19.588313"
   inkscape:cx="6.02425"
   inkscape:cy="3.7485004"
   inkscape:window-x="0"
   inkscape:window-y="0"
   inkscape:window-maximized="0"
   inkscape:current-layer="Layer_1" />
<g
   id="g2998"
   transform="matrix(0,1,-1,0,115.78575,-2.1420001)"><g
     id="g3">
	<line
   id="line5"
   y2="62.589001"
   x2="56.695"
   y1="58.266998"
   x1="56.695"
   stroke-miterlimit="10"
   style="fill:none;stroke:#000000;stroke-width:0.5;stroke-miterlimit:10" />
	<line
   id="line7"
   y2="62.589001"
   x2="59.632"
   y1="62.589001"
   x1="53.757999"
   stroke-miterlimit="10"
   style="fill:none;stroke:#000000;stroke-width:0.5;stroke-miterlimit:10" />
	<g
   id="g9">
		<path
   id="path11"
   d="m 56.695,51.3 c 1.794,0 3.253,1.459 3.253,3.254 0,1.793 -1.459,3.253 -3.253,3.253 -1.793,0 -3.253,-1.459 -3.253,-3.253 0,-1.795 1.46,-3.254 3.253,-3.254 m 0,-0.5 c -2.073,0 -3.753,1.681 -3.753,3.754 0,2.072 1.68,3.753 3.753,3.753 2.072,0 3.753,-1.681 3.753,-3.753 0,-2.074 -1.681,-3.754 -3.753,-3.754 l 0,0 z"
   inkscape:connector-curvature="0" />
	</g>
	<g
   id="g13">
		<path
   id="path15"
   d="m 56.695,53.361 c 0.657,0 1.192,0.535 1.192,1.192 0,0.657 -0.535,1.191 -1.192,1.191 -0.658,0 -1.192,-0.535 -1.192,-1.191 0,-0.657 0.534,-1.192 1.192,-1.192 m 0,-0.5 c -0.935,0 -1.692,0.758 -1.692,1.692 0,0.934 0.758,1.691 1.692,1.691 0.934,0 1.692,-0.758 1.692,-1.691 0,-0.934 -0.757,-1.692 -1.692,-1.692 l 0,0 z"
   inkscape:connector-curvature="0" />
	</g>
</g></g>
</svg>