<?xml version="1.0" encoding="UTF-8" standalone="no"?>
<!-- Generator: Adobe Illustrator 16.0.2, SVG Export Plug-In . SVG Version: 6.00 Build 0)  -->

<svg
   xmlns:dc="http://purl.org/dc/elements/1.1/"
   xmlns:cc="http://creativecommons.org/ns#"
   xmlns:rdf="http://www.w3.org/1999/02/22-rdf-syntax-ns#"
   xmlns:svg="http://www.w3.org/2000/svg"
   xmlns="http://www.w3.org/2000/svg"
   xmlns:sodipodi="http://sodipodi.sourceforge.net/DTD/sodipodi-0.dtd"
   xmlns:inkscape="http://www.inkscape.org/namespaces/inkscape"
   version="1.1"
   id="Layer_1"
   x="0px"
   y="0px"
   width="13.28125"
   height="12.03125"
   viewBox="0 0 13.28125 12.03125"
   enable-background="new 0 0 113.39 113.39"
   xml:space="preserve"
   inkscape:version="0.48.2 r9819"
   sodipodi:docname="opastin_vk.svg"><metadata
   id="metadata23"><rdf:RDF><cc:Work
       rdf:about=""><dc:format>image/svg+xml</dc:format><dc:type
         rdf:resource="http://purl.org/dc/dcmitype/StillImage" /></cc:Work></rdf:RDF></metadata><defs
   id="defs21" /><sodipodi:namedview
   pagecolor="#ffffff"
   bordercolor="#666666"
   borderopacity="1"
   objecttolerance="10"
   gridtolerance="10"
   guidetolerance="10"
   inkscape:pageopacity="0"
   inkscape:pageshadow="2"
   inkscape:window-width="728"
   inkscape:window-height="480"
   id="namedview19"
   showgrid="false"
   fit-margin-top="0"
   fit-margin-left="0"
   fit-margin-right="0"
   fit-margin-bottom="0"
   inkscape:zoom="2.0813123"
   inkscape:cx="6.6482486"
   inkscape:cy="6.0232484"
   inkscape:window-x="0"
   inkscape:window-y="0"
   inkscape:window-maximized="0"
   inkscape:current-layer="Layer_1" />
<g
   id="g2989"
   transform="matrix(0,1,-1,0,13.286751,-0.00249904)"><g
     transform="translate(-50.685001,-50.056999)"
     id="g3">
	<line
   style="fill:none;stroke:#000000;stroke-width:0.5;stroke-miterlimit:10"
   id="line5"
   y2="63.083"
   x2="56.695"
   y1="56.181"
   x1="56.695"
   stroke-miterlimit="10" />
	<line
   style="fill:none;stroke:#000000;stroke-width:0.5;stroke-miterlimit:10"
   id="line7"
   y2="63.083"
   x2="59.653999"
   y1="63.083"
   x1="53.779999"
   stroke-miterlimit="10" />
	<g
   id="g9">
		
			<rect
   style="fill:none;stroke:#000000;stroke-width:0.5;stroke-miterlimit:10"
   id="rect11"
   height="5.8740001"
   width="11.521"
   stroke-miterlimit="10"
   y="50.306999"
   x="50.935001" />
		<circle
   d="m 61.448001,53.243999 c 0,0.69367 -0.56233,1.256001 -1.256,1.256001 -0.693669,0 -1.256,-0.562331 -1.256,-1.256001 0,-0.693669 0.562331,-1.256 1.256,-1.256 0.69367,0 1.256,0.562331 1.256,1.256 z"
   style="fill:none;stroke:#000000;stroke-width:0.5;stroke-miterlimit:10"
   sodipodi:ry="1.256"
   sodipodi:rx="1.256"
   sodipodi:cy="53.243999"
   sodipodi:cx="60.192001"
   id="circle13"
   r="1.256"
   cy="53.243999"
   cx="60.192001"
   stroke-miterlimit="10" />
		<circle
   d="m 57.819,53.243999 c 0,0.69367 -0.562331,1.256001 -1.256,1.256001 -0.69367,0 -1.256,-0.562331 -1.256,-1.256001 0,-0.693669 0.56233,-1.256 1.256,-1.256 0.693669,0 1.256,0.562331 1.256,1.256 z"
   style="fill:none;stroke:#000000;stroke-width:0.5;stroke-miterlimit:10"
   sodipodi:ry="1.256"
   sodipodi:rx="1.256"
   sodipodi:cy="53.243999"
   sodipodi:cx="56.563"
   id="circle15"
   r="1.256"
   cy="53.243999"
   cx="56.563"
   stroke-miterlimit="10" />
		<circle
   d="m 54.188999,53.243999 c 0,0.69367 -0.562331,1.256001 -1.256,1.256001 -0.69367,0 -1.256,-0.562331 -1.256,-1.256001 0,-0.693669 0.56233,-1.256 1.256,-1.256 0.693669,0 1.256,0.562331 1.256,1.256 z"
   style="fill:none;stroke:#000000;stroke-width:0.5;stroke-miterlimit:10"
   sodipodi:ry="1.256"
   sodipodi:rx="1.256"
   sodipodi:cy="53.243999"
   sodipodi:cx="52.932999"
   id="circle17"
   r="1.256"
   cy="53.243999"
   cx="52.932999"
   stroke-miterlimit="10" />
	</g>
</g></g>
</svg>