<?xml version="1.0" encoding="UTF-8" standalone="no"?>
<!-- Generator: Adobe Illustrator 16.0.2, SVG Export Plug-In . SVG Version: 6.00 Build 0)  -->

<svg
   xmlns:dc="http://purl.org/dc/elements/1.1/"
   xmlns:cc="http://creativecommons.org/ns#"
   xmlns:rdf="http://www.w3.org/1999/02/22-rdf-syntax-ns#"
   xmlns:svg="http://www.w3.org/2000/svg"
   xmlns="http://www.w3.org/2000/svg"
   xmlns:sodipodi="http://sodipodi.sourceforge.net/DTD/sodipodi-0.dtd"
   xmlns:inkscape="http://www.inkscape.org/namespaces/inkscape"
   version="1.1"
   id="Layer_1"
   x="0px"
   y="0px"
   width="17.15625"
   height="10.25"
   viewBox="0 0 17.156251 10.25"
   enable-background="new 0 0 113.39 113.39"
   xml:space="preserve"
   inkscape:version="0.48.2 r9819"
   sodipodi:docname="opastin_jo.svg"><metadata
   id="metadata29"><rdf:RDF><cc:Work
       rdf:about=""><dc:format>image/svg+xml</dc:format><dc:type
         rdf:resource="http://purl.org/dc/dcmitype/StillImage" /></cc:Work></rdf:RDF></metadata><defs
   id="defs27" /><sodipodi:namedview
   pagecolor="#ffffff"
   bordercolor="#666666"
   borderopacity="1"
   objecttolerance="10"
   gridtolerance="10"
   guidetolerance="10"
   inkscape:pageopacity="0"
   inkscape:pageshadow="2"
   inkscape:window-width="1375"
   inkscape:window-height="939"
   id="namedview25"
   showgrid="false"
   fit-margin-top="0"
   fit-margin-left="0"
   fit-margin-right="0"
   fit-margin-bottom="0"
   inkscape:zoom="11.77368"
   inkscape:cx="-1.9809017"
   inkscape:cy="2.7733123"
   inkscape:window-x="0"
   inkscape:window-y="11"
   inkscape:window-maximized="0"
   inkscape:current-layer="Layer_1" />
<g
   id="g2992"
   transform="matrix(0,1,-1,0,17.16925,4.9965305e-4)"><g
     transform="translate(-51.563,-48.112)"
     id="g3">
	
		<rect
   style="fill:none;stroke:#000000;stroke-width:0.5;stroke-miterlimit:10"
   id="rect5"
   height="9.7629995"
   width="9.7629995"
   stroke-miterlimit="10"
   y="48.362"
   x="51.813" />
	<g
   id="g7">
		<circle
   d="m 55.013,50.293999 c 0,0.693669 -0.56233,1.256 -1.256,1.256 -0.69367,0 -1.256,-0.562331 -1.256,-1.256 0,-0.69367 0.56233,-1.256 1.256,-1.256 0.69367,0 1.256,0.56233 1.256,1.256 z"
   style="fill:none;stroke:#000000;stroke-width:0.5;stroke-miterlimit:10"
   sodipodi:ry="1.256"
   sodipodi:rx="1.256"
   sodipodi:cy="50.293999"
   sodipodi:cx="53.757"
   id="circle9"
   r="1.256"
   cy="50.293999"
   cx="53.757"
   stroke-miterlimit="10" />
		<circle
   d="m 60.889,50.293999 c 0,0.694222 -0.562778,1.257 -1.257,1.257 -0.694222,0 -1.257,-0.562778 -1.257,-1.257 0,-0.694222 0.562778,-1.257 1.257,-1.257 0.694222,0 1.257,0.562778 1.257,1.257 z"
   style="fill:none;stroke:#000000;stroke-width:0.5;stroke-miterlimit:10"
   sodipodi:ry="1.257"
   sodipodi:rx="1.257"
   sodipodi:cy="50.293999"
   sodipodi:cx="59.632"
   id="circle11"
   r="1.257"
   cy="50.293999"
   cx="59.632"
   stroke-miterlimit="10" />
	</g>
	<g
   id="g13">
		<circle
   d="m 55.013,56.092999 c 0,0.693669 -0.56233,1.256 -1.256,1.256 -0.69367,0 -1.256,-0.562331 -1.256,-1.256 0,-0.69367 0.56233,-1.256001 1.256,-1.256001 0.69367,0 1.256,0.562331 1.256,1.256001 z"
   style="fill:none;stroke:#000000;stroke-width:0.5;stroke-miterlimit:10"
   sodipodi:ry="1.256"
   sodipodi:rx="1.256"
   sodipodi:cy="56.092999"
   sodipodi:cx="53.757"
   id="circle15"
   r="1.256"
   cy="56.092999"
   cx="53.757"
   stroke-miterlimit="10" />
		<circle
   d="m 60.889,56.092999 c 0,0.694221 -0.562778,1.256999 -1.257,1.256999 -0.694222,0 -1.257,-0.562778 -1.257,-1.256999 0,-0.694222 0.562778,-1.257 1.257,-1.257 0.694222,0 1.257,0.562778 1.257,1.257 z"
   style="fill:none;stroke:#000000;stroke-width:0.5;stroke-miterlimit:10"
   sodipodi:ry="1.257"
   sodipodi:rx="1.257"
   sodipodi:cy="56.092999"
   sodipodi:cx="59.632"
   id="circle17"
   r="1.257"
   cy="56.092999"
   cx="59.632"
   stroke-miterlimit="10" />
	</g>
	<g
   id="g19">
		<line
   style="fill:none;stroke:#000000;stroke-width:0.5;stroke-miterlimit:10"
   id="line21"
   y2="65.027"
   x2="56.694"
   y1="58.125"
   x1="56.694"
   stroke-miterlimit="10" />
		<line
   style="fill:none;stroke:#000000;stroke-width:0.5;stroke-miterlimit:10"
   id="line23"
   y2="65.027"
   x2="59.632"
   y1="65.027"
   x1="53.757999"
   stroke-miterlimit="10" />
	</g>
</g></g>
</svg>