<?xml version="1.0" encoding="UTF-8" standalone="no"?>
<!-- Generator: Adobe Illustrator 16.0.2, SVG Export Plug-In . SVG Version: 6.00 Build 0)  -->

<svg
   xmlns:dc="http://purl.org/dc/elements/1.1/"
   xmlns:cc="http://creativecommons.org/ns#"
   xmlns:rdf="http://www.w3.org/1999/02/22-rdf-syntax-ns#"
   xmlns:svg="http://www.w3.org/2000/svg"
   xmlns="http://www.w3.org/2000/svg"
   xmlns:sodipodi="http://sodipodi.sourceforge.net/DTD/sodipodi-0.dtd"
   xmlns:inkscape="http://www.inkscape.org/namespaces/inkscape"
   version="1.1"
   id="Layer_1"
   x="0px"
   y="0px"
   width="18.67375"
   height="5.88625"
   viewBox="53.52 48.045 18.67375 5.8862501"
   enable-background="new 53.52 48.045 5.875 18.657"
   xml:space="preserve"
   inkscape:version="0.48.2 r9819"
   sodipodi:docname="opastin_pa.svg"><metadata
   id="metadata27"><rdf:RDF><cc:Work
       rdf:about=""><dc:format>image/svg+xml</dc:format><dc:type
         rdf:resource="http://purl.org/dc/dcmitype/StillImage" /></cc:Work></rdf:RDF></metadata><defs
   id="defs25" /><sodipodi:namedview
   pagecolor="#ffffff"
   bordercolor="#666666"
   borderopacity="1"
   objecttolerance="10"
   gridtolerance="10"
   guidetolerance="10"
   inkscape:pageopacity="0"
   inkscape:pageshadow="2"
   inkscape:window-width="728"
   inkscape:window-height="480"
   id="namedview23"
   showgrid="false"
   fit-margin-top="0"
   fit-margin-left="0"
   fit-margin-right="0"
   fit-margin-bottom="0"
   inkscape:zoom="12.649408"
   inkscape:cx="9.3367498"
   inkscape:cy="2.9572504"
   inkscape:window-x="0"
   inkscape:window-y="0"
   inkscape:window-maximized="0"
   inkscape:current-layer="Layer_1" />





<g
   id="g3004"
   transform="matrix(0,1,-1,0,120.23875,-5.475)"><g
     id="g3">
	<path
   id="path5"
   d="M 58.895,48.545 V 59.066 H 54.02 V 48.545 h 4.875 m 0.5,-0.5 H 53.52 v 11.521 h 5.875 V 48.045 l 0,0 z"
   inkscape:connector-curvature="0" />
</g><line
     id="line7"
     y2="66.469002"
     x2="56.457001"
     y1="59.564999"
     x1="56.457001"
     stroke-miterlimit="10"
     style="fill:none;stroke:#000000;stroke-width:0.5;stroke-miterlimit:10" /><line
     id="line9"
     y2="66.469002"
     x2="59.395"
     y1="66.469002"
     x1="53.52"
     stroke-miterlimit="10"
     style="fill:none;stroke:#000000;stroke-width:0.5;stroke-miterlimit:10" /><g
     id="g11">
	<path
   id="path13"
   d="m 56.413,49.487 c 0.417,0 0.756,0.339 0.756,0.756 0,0.417 -0.339,0.756 -0.756,0.756 -0.417,0 -0.756,-0.339 -0.756,-0.756 0,-0.417 0.339,-0.756 0.756,-0.756 m 0,-0.5 c -0.693,0 -1.256,0.563 -1.256,1.256 0,0.693 0.563,1.256 1.256,1.256 0.693,0 1.256,-0.563 1.256,-1.256 0,-0.693 -0.563,-1.256 -1.256,-1.256 l 0,0 z"
   inkscape:connector-curvature="0" />
</g><g
     id="g15">
	<path
   id="path17"
   d="m 56.413,53.117 c 0.417,0 0.756,0.339 0.756,0.756 0,0.417 -0.339,0.756 -0.756,0.756 -0.417,0 -0.756,-0.339 -0.756,-0.756 0,-0.417 0.339,-0.756 0.756,-0.756 m 0,-0.5 c -0.693,0 -1.256,0.563 -1.256,1.256 0,0.694 0.563,1.256 1.256,1.256 0.693,0 1.256,-0.562 1.256,-1.256 0,-0.694 -0.563,-1.256 -1.256,-1.256 l 0,0 z"
   inkscape:connector-curvature="0" />
</g><g
     id="g19">
	<path
   id="path21"
   d="m 56.413,56.746 c 0.417,0 0.756,0.339 0.756,0.756 0,0.417 -0.339,0.756 -0.756,0.756 -0.417,0 -0.756,-0.339 -0.756,-0.756 0,-0.417 0.339,-0.756 0.756,-0.756 m 0,-0.5 c -0.693,0 -1.256,0.563 -1.256,1.256 0,0.694 0.563,1.256 1.256,1.256 0.693,0 1.256,-0.562 1.256,-1.256 0,-0.694 -0.563,-1.256 -1.256,-1.256 l 0,0 z"
   inkscape:connector-curvature="0" />
</g></g>
</svg>