<?xml version="1.0" encoding="UTF-8" standalone="no"?>
<!-- Generator: Adobe Illustrator 16.0.2, SVG Export Plug-In . SVG Version: 6.00 Build 0)  -->

<svg
   xmlns:dc="http://purl.org/dc/elements/1.1/"
   xmlns:cc="http://creativecommons.org/ns#"
   xmlns:rdf="http://www.w3.org/1999/02/22-rdf-syntax-ns#"
   xmlns:svg="http://www.w3.org/2000/svg"
   xmlns="http://www.w3.org/2000/svg"
   xmlns:sodipodi="http://sodipodi.sourceforge.net/DTD/sodipodi-0.dtd"
   xmlns:inkscape="http://www.inkscape.org/namespaces/inkscape"
   version="1.1"
   id="Layer_1"
   x="0px"
   y="0px"
   width="14.2415"
   height="10.70808"
   viewBox="51.342 49.696 14.2415 10.70808"
   enable-background="new 51.342 49.696 10.707 14.266"
   xml:space="preserve"
   inkscape:version="0.48.2 r9819"
   sodipodi:docname="opastin_su.svg"><metadata
   id="metadata31"><rdf:RDF><cc:Work
       rdf:about=""><dc:format>image/svg+xml</dc:format><dc:type
         rdf:resource="http://purl.org/dc/dcmitype/StillImage" /></cc:Work></rdf:RDF></metadata><defs
   id="defs29" /><sodipodi:namedview
   pagecolor="#ffffff"
   bordercolor="#666666"
   borderopacity="1"
   objecttolerance="10"
   gridtolerance="10"
   guidetolerance="10"
   inkscape:pageopacity="0"
   inkscape:pageshadow="2"
   inkscape:window-width="728"
   inkscape:window-height="480"
   id="namedview27"
   showgrid="false"
   fit-margin-top="0"
   fit-margin-left="0"
   fit-margin-right="0"
   fit-margin-bottom="0"
   inkscape:zoom="16.542829"
   inkscape:cx="7.1179599"
   inkscape:cy="5.3450402"
   inkscape:window-x="0"
   inkscape:window-y="0"
   inkscape:window-maximized="0"
   inkscape:current-layer="Layer_1" />
<g
   id="g3008"
   transform="matrix(0,1,-1,0,115.2795,-1.645)"><g
     id="g3">
	<line
   id="line5"
   y2="63.694"
   x2="56.431999"
   y1="59.372002"
   x1="56.431999"
   stroke-miterlimit="10"
   style="fill:none;stroke:#000000;stroke-width:0.5;stroke-miterlimit:10" />
	<line
   id="line7"
   y2="63.694"
   x2="59.368999"
   y1="63.694"
   x1="53.494999"
   stroke-miterlimit="10"
   style="fill:none;stroke:#000000;stroke-width:0.5;stroke-miterlimit:10" />
	<g
   id="g9">
		<g
   id="g11">
			<path
   id="path13"
   d="m 54.466,52.684 c 0.417,0 0.757,0.339 0.757,0.756 0,0.417 -0.339,0.756 -0.757,0.756 -0.417,0 -0.756,-0.339 -0.756,-0.756 0,-0.417 0.339,-0.756 0.756,-0.756 m 0,-0.5 c -0.693,0 -1.256,0.562 -1.256,1.256 0,0.693 0.563,1.256 1.256,1.256 0.694,0 1.257,-0.563 1.257,-1.256 -10e-4,-0.694 -0.563,-1.256 -1.257,-1.256 l 0,0 z"
   inkscape:connector-curvature="0" />
		</g>
		<g
   id="g15">
			<path
   id="path17"
   d="m 54.466,56.403 c 0.417,0 0.757,0.339 0.757,0.756 0,0.417 -0.339,0.756 -0.757,0.756 -0.417,0 -0.756,-0.339 -0.756,-0.756 0,-0.417 0.339,-0.756 0.756,-0.756 m 0,-0.5 c -0.693,0 -1.256,0.563 -1.256,1.256 0,0.693 0.563,1.256 1.256,1.256 0.694,0 1.257,-0.563 1.257,-1.256 0,-0.693 -0.563,-1.256 -1.257,-1.256 l 0,0 z"
   inkscape:connector-curvature="0" />
		</g>
		<g
   id="g19">
			<path
   id="path21"
   d="m 58.398,56.403 c 0.417,0 0.756,0.339 0.756,0.756 0,0.417 -0.339,0.756 -0.756,0.756 -0.417,0 -0.756,-0.339 -0.756,-0.756 0,-0.417 0.339,-0.756 0.756,-0.756 m 0,-0.5 c -0.694,0 -1.256,0.563 -1.256,1.256 0,0.693 0.562,1.256 1.256,1.256 0.693,0 1.256,-0.563 1.256,-1.256 0,-0.693 -0.562,-1.256 -1.256,-1.256 l 0,0 z"
   inkscape:connector-curvature="0" />
		</g>
	</g>
	<g
   id="g23">
		<path
   id="path25"
   d="m 52.588,50.197 c 3.483,0.403 8.83,5.123 8.961,7.919 0.008,0.168 -0.067,0.348 -0.206,0.492 -0.153,0.161 -0.358,0.253 -0.563,0.253 h -8.168 c -0.424,0 -0.77,-0.345 -0.77,-0.769 v -7.128 c 0,-0.423 0.395,-0.753 0.746,-0.767 m 0.023,-0.501 c -0.639,0 -1.27,0.568 -1.27,1.269 v 7.128 c 0,0.7 0.568,1.269 1.27,1.269 h 8.168 c 0.7,0 1.299,-0.616 1.269,-1.269 -0.149,-3.189 -5.81,-8.002 -9.437,-8.397 l 0,0 z"
   inkscape:connector-curvature="0" />
	</g>
</g></g>
</svg>