<?xml version="1.0" encoding="UTF-8" standalone="no"?>
<!-- Generator: Adobe Illustrator 16.0.2, SVG Export Plug-In . SVG Version: 6.00 Build 0)  -->

<svg
   xmlns:dc="http://purl.org/dc/elements/1.1/"
   xmlns:cc="http://creativecommons.org/ns#"
   xmlns:rdf="http://www.w3.org/1999/02/22-rdf-syntax-ns#"
   xmlns:svg="http://www.w3.org/2000/svg"
   xmlns="http://www.w3.org/2000/svg"
   xmlns:sodipodi="http://sodipodi.sourceforge.net/DTD/sodipodi-0.dtd"
   xmlns:inkscape="http://www.inkscape.org/namespaces/inkscape"
   version="1.1"
   id="Layer_1"
   x="0px"
   y="0px"
   width="11.632"
   height="8.092"
   viewBox="0 0 11.632 8.0920001"
   enable-background="new 0 0 113.39 113.39"
   xml:space="preserve"
   inkscape:version="0.48.2 r9819"
   sodipodi:docname="paloposti.svg"><metadata
   id="metadata13"><rdf:RDF><cc:Work
       rdf:about=""><dc:format>image/svg+xml</dc:format><dc:type
         rdf:resource="http://purl.org/dc/dcmitype/StillImage" /></cc:Work></rdf:RDF></metadata><defs
   id="defs11" /><sodipodi:namedview
   pagecolor="#ffffff"
   bordercolor="#666666"
   borderopacity="1"
   objecttolerance="10"
   gridtolerance="10"
   guidetolerance="10"
   inkscape:pageopacity="0"
   inkscape:pageshadow="2"
   inkscape:window-width="640"
   inkscape:window-height="480"
   id="namedview9"
   showgrid="false"
   fit-margin-top="0"
   fit-margin-left="0"
   fit-margin-right="0"
   fit-margin-bottom="0"
   inkscape:zoom="2.0813123"
   inkscape:cx="6.206"
   inkscape:cy="5.081"
   inkscape:window-x="0"
   inkscape:window-y="0"
   inkscape:window-maximized="0"
   inkscape:current-layer="Layer_1" />
<g
   id="g3"
   transform="translate(-50.489,-53.684)">
	<path
   d="m 50.519,54.375 1.652,-0.668 h 0.223 v 1.254 c 0.277,-0.473 0.556,-0.804 0.835,-0.993 0.279,-0.189 0.573,-0.284 0.882,-0.284 0.539,0 0.988,0.211 1.348,0.633 0.441,0.516 0.662,1.188 0.662,2.016 0,0.926 -0.266,1.691 -0.797,2.297 -0.438,0.496 -0.988,0.744 -1.652,0.744 -0.289,0 -0.539,-0.041 -0.75,-0.123 -0.156,-0.059 -0.332,-0.176 -0.527,-0.352 v 1.635 c 0,0.367 0.022,0.601 0.067,0.7 0.045,0.099 0.123,0.179 0.234,0.237 0.111,0.058 0.313,0.088 0.606,0.088 v 0.217 h -2.813 v -0.217 h 0.146 c 0.215,0.004 0.398,-0.037 0.551,-0.123 0.074,-0.043 0.132,-0.112 0.173,-0.208 0.041,-0.096 0.062,-0.339 0.062,-0.729 v -5.074 c 0,-0.348 -0.016,-0.568 -0.047,-0.662 -0.031,-0.094 -0.081,-0.164 -0.149,-0.211 -0.068,-0.047 -0.161,-0.07 -0.278,-0.07 -0.094,0 -0.213,0.027 -0.357,0.082 l -0.071,-0.189 z m 1.875,0.932 v 2.004 c 0,0.434 0.018,0.719 0.053,0.855 0.055,0.227 0.188,0.426 0.401,0.598 0.213,0.172 0.481,0.258 0.806,0.258 0.391,0 0.707,-0.152 0.949,-0.457 0.316,-0.398 0.475,-0.959 0.475,-1.682 0,-0.82 -0.18,-1.451 -0.539,-1.893 -0.25,-0.305 -0.547,-0.457 -0.891,-0.457 -0.188,0 -0.373,0.047 -0.557,0.141 -0.141,0.07 -0.373,0.281 -0.697,0.633 z"
   id="path5"
   inkscape:connector-curvature="0" />
	<path
   d="m 56.519,54.375 1.652,-0.668 h 0.223 v 1.254 c 0.277,-0.473 0.556,-0.804 0.835,-0.993 0.279,-0.189 0.573,-0.284 0.882,-0.284 0.539,0 0.988,0.211 1.348,0.633 0.441,0.516 0.662,1.188 0.662,2.016 0,0.926 -0.266,1.691 -0.797,2.297 -0.438,0.496 -0.988,0.744 -1.652,0.744 -0.289,0 -0.539,-0.041 -0.75,-0.123 -0.156,-0.059 -0.332,-0.176 -0.527,-0.352 v 1.635 c 0,0.367 0.022,0.601 0.067,0.7 0.045,0.099 0.123,0.179 0.234,0.237 0.111,0.058 0.313,0.088 0.606,0.088 v 0.217 h -2.813 v -0.217 h 0.146 c 0.215,0.004 0.398,-0.037 0.551,-0.123 0.074,-0.043 0.132,-0.112 0.173,-0.208 0.041,-0.096 0.062,-0.339 0.062,-0.729 v -5.074 c 0,-0.348 -0.016,-0.568 -0.047,-0.662 -0.031,-0.094 -0.081,-0.164 -0.149,-0.211 -0.068,-0.047 -0.161,-0.07 -0.278,-0.07 -0.094,0 -0.213,0.027 -0.357,0.082 l -0.071,-0.189 z m 1.875,0.932 v 2.004 c 0,0.434 0.018,0.719 0.053,0.855 0.055,0.227 0.188,0.426 0.401,0.598 0.213,0.172 0.481,0.258 0.806,0.258 0.391,0 0.707,-0.152 0.949,-0.457 0.316,-0.398 0.475,-0.959 0.475,-1.682 0,-0.82 -0.18,-1.451 -0.539,-1.893 -0.25,-0.305 -0.547,-0.457 -0.891,-0.457 -0.188,0 -0.373,0.047 -0.557,0.141 -0.141,0.07 -0.373,0.281 -0.697,0.633 z"
   id="path7"
   inkscape:connector-curvature="0" />
</g>
</svg>