<?xml version="1.0" encoding="UTF-8" standalone="no"?>
<!-- Generator: Adobe Illustrator 16.0.2, SVG Export Plug-In . SVG Version: 6.00 Build 0)  -->

<svg
   xmlns:dc="http://purl.org/dc/elements/1.1/"
   xmlns:cc="http://creativecommons.org/ns#"
   xmlns:rdf="http://www.w3.org/1999/02/22-rdf-syntax-ns#"
   xmlns:svg="http://www.w3.org/2000/svg"
   xmlns="http://www.w3.org/2000/svg"
   xmlns:sodipodi="http://sodipodi.sourceforge.net/DTD/sodipodi-0.dtd"
   xmlns:inkscape="http://www.inkscape.org/namespaces/inkscape"
   version="1.1"
   id="Layer_1"
   x="0px"
   y="0px"
   width="12.059"
   height="8.1090002"
   viewBox="0 0 12.059 8.1090002"
   enable-background="new 0 0 113.39 113.39"
   xml:space="preserve"
   inkscape:version="0.48.2 r9819"
   sodipodi:docname="tankkauspiste.svg"><metadata
   id="metadata13"><rdf:RDF><cc:Work
       rdf:about=""><dc:format>image/svg+xml</dc:format><dc:type
         rdf:resource="http://purl.org/dc/dcmitype/StillImage" /></cc:Work></rdf:RDF></metadata><defs
   id="defs11" /><sodipodi:namedview
   pagecolor="#ffffff"
   bordercolor="#666666"
   borderopacity="1"
   objecttolerance="10"
   gridtolerance="10"
   guidetolerance="10"
   inkscape:pageopacity="0"
   inkscape:pageshadow="2"
   inkscape:window-width="640"
   inkscape:window-height="480"
   id="namedview9"
   showgrid="false"
   fit-margin-top="0"
   fit-margin-left="0"
   fit-margin-right="0"
   fit-margin-bottom="0"
   inkscape:zoom="2.0813123"
   inkscape:cx="5.799"
   inkscape:cy="5.25"
   inkscape:window-x="0"
   inkscape:window-y="0"
   inkscape:window-maximized="0"
   inkscape:current-layer="Layer_1" />
<g
   id="g3"
   transform="translate(-50.896,-53.836)">
	<path
   d="m 53.158,58.061 v 2.314 c 0,0.5 0.055,0.811 0.164,0.932 0.148,0.172 0.373,0.258 0.674,0.258 H 54.3 v 0.217 h -3.404 v -0.217 h 0.299 c 0.336,0 0.576,-0.109 0.721,-0.328 0.078,-0.121 0.117,-0.408 0.117,-0.861 v -5.133 c 0,-0.5 -0.053,-0.811 -0.158,-0.932 -0.152,-0.172 -0.379,-0.258 -0.68,-0.258 h -0.299 v -0.217 h 2.912 c 0.711,0 1.271,0.073 1.682,0.22 0.411,0.147 0.756,0.394 1.037,0.741 0.281,0.347 0.422,0.76 0.422,1.236 0,0.648 -0.214,1.176 -0.642,1.582 -0.428,0.406 -1.032,0.609 -1.813,0.609 -0.191,0 -0.398,-0.014 -0.621,-0.041 -0.223,-0.027 -0.461,-0.068 -0.715,-0.122 z m 0,-0.334 c 0.207,0.039 0.391,0.068 0.551,0.088 0.16,0.02 0.297,0.029 0.41,0.029 0.406,0 0.757,-0.157 1.052,-0.472 0.295,-0.315 0.442,-0.722 0.442,-1.222 0,-0.344 -0.07,-0.663 -0.211,-0.958 -0.141,-0.295 -0.34,-0.516 -0.598,-0.662 -0.258,-0.146 -0.551,-0.22 -0.879,-0.22 -0.199,0 -0.455,0.037 -0.768,0.111 v 3.306 z"
   id="path5"
   inkscape:connector-curvature="0" />
	<path
   d="m 60.371,56.256 c 0.813,0 1.465,0.309 1.957,0.926 0.418,0.527 0.627,1.133 0.627,1.816 0,0.48 -0.115,0.967 -0.346,1.459 -0.231,0.492 -0.549,0.863 -0.953,1.113 -0.404,0.25 -0.854,0.375 -1.35,0.375 -0.809,0 -1.451,-0.322 -1.928,-0.967 -0.403,-0.543 -0.604,-1.152 -0.604,-1.828 0,-0.492 0.122,-0.981 0.366,-1.468 0.244,-0.486 0.566,-0.846 0.965,-1.078 0.399,-0.232 0.821,-0.348 1.266,-0.348 z m -1.043,-2.303 c 0.18,0 0.33,0.063 0.453,0.188 0.123,0.125 0.186,0.275 0.186,0.451 0,0.176 -0.063,0.325 -0.188,0.448 -0.125,0.123 -0.273,0.185 -0.445,0.185 -0.176,0 -0.326,-0.062 -0.451,-0.185 -0.125,-0.123 -0.188,-0.272 -0.188,-0.448 0,-0.176 0.061,-0.326 0.184,-0.451 0.123,-0.125 0.273,-0.188 0.449,-0.188 z m 0.861,2.684 c -0.207,0 -0.416,0.062 -0.625,0.185 -0.209,0.123 -0.377,0.339 -0.506,0.647 -0.129,0.308 -0.193,0.705 -0.193,1.189 0,0.781 0.154,1.455 0.465,2.021 0.311,0.566 0.721,0.85 1.229,0.85 0.379,0 0.691,-0.156 0.938,-0.469 0.247,-0.313 0.369,-0.85 0.369,-1.611 0,-0.953 -0.205,-1.703 -0.615,-2.25 -0.278,-0.375 -0.632,-0.562 -1.062,-0.562 z m 1.207,-2.684 c 0.176,0 0.324,0.063 0.447,0.188 0.123,0.125 0.186,0.275 0.186,0.451 0,0.176 -0.063,0.325 -0.186,0.448 -0.123,0.123 -0.271,0.185 -0.447,0.185 -0.176,0 -0.326,-0.062 -0.451,-0.185 -0.125,-0.123 -0.188,-0.272 -0.188,-0.448 0,-0.176 0.063,-0.326 0.188,-0.451 0.125,-0.125 0.276,-0.188 0.451,-0.188 z"
   id="path7"
   inkscape:connector-curvature="0" />
</g>
</svg>