<?xml version="1.0" encoding="UTF-8" standalone="no"?>
<!-- Generator: Adobe Illustrator 16.0.2, SVG Export Plug-In . SVG Version: 6.00 Build 0)  -->

<svg
   xmlns:dc="http://purl.org/dc/elements/1.1/"
   xmlns:cc="http://creativecommons.org/ns#"
   xmlns:rdf="http://www.w3.org/1999/02/22-rdf-syntax-ns#"
   xmlns:svg="http://www.w3.org/2000/svg"
   xmlns="http://www.w3.org/2000/svg"
   xmlns:sodipodi="http://sodipodi.sourceforge.net/DTD/sodipodi-0.dtd"
   xmlns:inkscape="http://www.inkscape.org/namespaces/inkscape"
   version="1.1"
   id="Layer_1"
   x="0px"
   y="0px"
   width="25.242052"
   height="14.59375"
   viewBox="0 0 25.242052 14.59375"
   enable-background="new 0 0 113.39 113.39"
   xml:space="preserve"
   inkscape:version="0.48.2 r9819"
   sodipodi:docname="Tunneli.svg"><metadata
   id="metadata21"><rdf:RDF><cc:Work
       rdf:about=""><dc:format>image/svg+xml</dc:format><dc:type
         rdf:resource="http://purl.org/dc/dcmitype/StillImage" /><dc:title></dc:title></cc:Work></rdf:RDF></metadata><defs
   id="defs19" /><sodipodi:namedview
   pagecolor="#ffffff"
   bordercolor="#666666"
   borderopacity="1"
   objecttolerance="10"
   gridtolerance="10"
   guidetolerance="10"
   inkscape:pageopacity="0"
   inkscape:pageshadow="2"
   inkscape:window-width="640"
   inkscape:window-height="480"
   id="namedview17"
   showgrid="false"
   fit-margin-top="0"
   fit-margin-left="0"
   fit-margin-right="0"
   fit-margin-bottom="0"
   inkscape:zoom="2.0813123"
   inkscape:cx="23.368793"
   inkscape:cy="7.305"
   inkscape:window-x="894"
   inkscape:window-y="11"
   inkscape:window-maximized="0"
   inkscape:current-layer="Layer_1" />
<g
   id="g3"
   transform="matrix(0.53813835,0,0,1,-17.8931,-49.40625)">
	<g
   id="g5">
		<polyline
   stroke-miterlimit="10"
   points="36.104,59.999 37.382,61.134     38.662,59.999 39.944,61.134 41.225,59.999 42.504,61.134 43.782,59.999 45.061,61.134 46.34,59.999 47.622,61.134 48.904,59.999     50.185,61.134 51.465,59.999 52.746,61.134 54.029,59.999 55.312,61.134 56.593,59.999 57.875,61.134 59.159,59.999     60.441,61.134 61.725,59.999 63.008,61.134 64.292,59.999 65.572,61.134 66.854,59.999 68.139,61.134 69.422,59.999     70.706,61.134 71.992,59.999 73.276,61.134 74.563,59.999 75.854,61.134 77.143,59.999   "
   id="polyline7"
   style="fill:none;stroke:#000000;stroke-width:0.5;stroke-miterlimit:10" />
	</g>
	<g
   id="g9">
		<polyline
   stroke-miterlimit="10"
   points="77.143,52.974 75.864,51.84     74.584,52.974 73.302,51.84 72.021,52.974 70.742,51.84 69.464,52.974 68.186,51.84 66.906,52.974 65.625,51.84 64.342,52.974     63.061,51.84 61.781,52.974 60.5,51.84 59.218,52.974 57.935,51.84 56.653,52.974 55.371,51.84 54.087,52.974 52.805,51.84     51.521,52.974 50.238,51.84 48.954,52.974 47.673,51.84 46.393,52.974 45.107,51.84 43.825,52.974 42.54,51.84 41.254,52.974     39.97,51.84 38.682,52.974 37.393,51.84 36.104,52.974   "
   id="polyline11"
   style="fill:none;stroke:#000000;stroke-width:0.5;stroke-miterlimit:10" />
	</g>
	<polyline
   stroke-miterlimit="10"
   points="79.979,49.581 77.219,52.407    77.219,61.021 79.979,63.812  "
   id="polyline13"
   style="fill:#ffffff;stroke:#000000;stroke-width:0.5;stroke-miterlimit:10" />
	<polyline
   stroke-miterlimit="10"
   points="33.415,63.809 36.175,60.982    36.175,52.37 33.415,49.578  "
   id="polyline15"
   style="fill:#ffffff;stroke:#000000;stroke-width:0.5;stroke-miterlimit:10" />
</g>
</svg>